<svg xmlns="http://www.w3.org/2000/svg" width="805" height="600"><rect width="805" height="600" x="0" y="0" fill="#FFFFFF" id="backgorund"/><g id="viz"><clipPath id="serieClipPath"><rect x="-50" y="-10" width="805" height="600"/></clipPath><g transform="translate(0,0)"><g transform="translate(50,10)" clip-path="url(#serieClipPath)"><g id="axis"><g transform="translate(0,570)" fill="none" font-size="10" font-family="sans-serif" text-anchor="middle"><path class="domain" stroke="currentColor" d="M0,6V0H740V6"/><g class="tick" opacity="1" transform="translate(0,0)"><line stroke="currentColor" y2="6"/><text fill="currentColor" y="9" dy="0.71em">Fri 07</text></g><g class="tick" opacity="1" transform="translate(47.74193548387097,0)"><line stroke="currentColor" y2="6"/><text fill="currentColor" y="9" dy="0.71em">Oct 09</text></g><g class="tick" opacity="1" transform="translate(95.48387096774194,0)"><line stroke="currentColor" y2="6"/><text fill="currentColor" y="9" dy="0.71em">Tue 11</text></g><g class="tick" opacity="1" transform="translate(143.2258064516129,0)"><line stroke="currentColor" y2="6"/><text fill="currentColor" y="9" dy="0.71em">Thu 13</text></g><g class="tick" opacity="1" transform="translate(190.96774193548387,0)"><line stroke="currentColor" y2="6"/><text fill="currentColor" y="9" dy="0.71em">Sat 15</text></g><g class="tick" opacity="1" transform="translate(238.70967741935482,0)"><line stroke="currentColor" y2="6"/><text fill="currentColor" y="9" dy="0.71em">Mon 17</text></g><g class="tick" opacity="1" transform="translate(286.4516129032258,0)"><line stroke="currentColor" y2="6"/><text fill="currentColor" y="9" dy="0.71em">Wed 19</text></g><g class="tick" opacity="1" transform="translate(334.19354838709677,0)"><line stroke="currentColor" y2="6"/><text fill="currentColor" y="9" dy="0.71em">Fri 21</text></g><g class="tick" opacity="1" transform="translate(381.93548387096774,0)"><line stroke="currentColor" y2="6"/><text fill="currentColor" y="9" dy="0.71em">Oct 23</text></g><g class="tick" opacity="1" transform="translate(429.6774193548387,0)"><line stroke="currentColor" y2="6"/><text fill="currentColor" y="9" dy="0.71em">Tue 25</text></g><g class="tick" opacity="1" transform="translate(477.41935483870964,0)"><line stroke="currentColor" y2="6"/><text fill="currentColor" y="9" dy="0.71em">Thu 27</text></g><g class="tick" opacity="1" transform="translate(525.1612903225807,0)"><line stroke="currentColor" y2="6"/><text fill="currentColor" y="9" dy="0.71em">Sat 29</text></g><g class="tick" opacity="1" transform="translate(572.9032258064516,0)"><line stroke="currentColor" y2="6"/><text fill="currentColor" y="9" dy="0.71em">Mon 31</text></g><g class="tick" opacity="1" transform="translate(596.7741935483871,0)"><line stroke="currentColor" y2="6"/><text fill="currentColor" y="9" dy="0.71em">November</text></g><g class="tick" opacity="1" transform="translate(644.516129032258,0)"><line stroke="currentColor" y2="6"/><text fill="currentColor" y="9" dy="0.71em">Thu 03</text></g><g class="tick" opacity="1" transform="translate(692.258064516129,0)"><line stroke="currentColor" y2="6"/><text fill="currentColor" y="9" dy="0.71em">Sat 05</text></g><g class="tick" opacity="1" transform="translate(740,0)"><line stroke="currentColor" y2="6"/><text fill="currentColor" y="9" dy="0.71em">Mon 07</text></g><text x="740" dy="-5" text-anchor="end" style="font-family: Arial, sans-serif; font-size: 12px; fill: rgb(123, 123, 123); font-weight: bold;">日期</text></g><g transform="translate(0,0)" fill="none" font-size="10" font-family="sans-serif" text-anchor="end"><path class="domain" stroke="currentColor" d="M0,570V0"/><g class="tick" opacity="1" transform="translate(0,570)"><line stroke="currentColor" x2="-6"/><text fill="currentColor" x="-9" dy="0.32em">36.5</text></g><g class="tick" opacity="1" transform="translate(0,498.75)"><line stroke="currentColor" x2="-6"/><text fill="currentColor" x="-9" dy="0.32em">37.0</text></g><g class="tick" opacity="1" transform="translate(0,427.5)"><line stroke="currentColor" x2="-6"/><text fill="currentColor" x="-9" dy="0.32em">37.5</text></g><g class="tick" opacity="1" transform="translate(0,356.25)"><line stroke="currentColor" x2="-6"/><text fill="currentColor" x="-9" dy="0.32em">38.0</text></g><g class="tick" opacity="1" transform="translate(0,285)"><line stroke="currentColor" x2="-6"/><text fill="currentColor" x="-9" dy="0.32em">38.5</text></g><g class="tick" opacity="1" transform="translate(0,213.75)"><line stroke="currentColor" x2="-6"/><text fill="currentColor" x="-9" dy="0.32em">39.0</text></g><g class="tick" opacity="1" transform="translate(0,142.5)"><line stroke="currentColor" x2="-6"/><text fill="currentColor" x="-9" dy="0.32em">39.5</text></g><g class="tick" opacity="1" transform="translate(0,71.25)"><line stroke="currentColor" x2="-6"/><text fill="currentColor" x="-9" dy="0.32em">40.0</text></g><g class="tick" opacity="1" transform="translate(0,0)"><line stroke="currentColor" x2="-6"/><text fill="currentColor" x="-9" dy="0.32em">40.5</text></g><text x="4" text-anchor="start" dominant-baseline="hanging" style="font-family: Arial, sans-serif; font-size: 12px; fill: rgb(123, 123, 123); font-weight: bold;">收盤</text></g></g><g id="viz"><g><path d="M0,0C47.74193548387097,0,47.74193548387097,128.2499999999998,95.48387096774194,128.2499999999998C107.41935483870967,128.2499999999998,107.41935483870967,135.3750000000004,119.35483870967741,135.3750000000004C131.29032258064515,135.3750000000004,131.29032258064515,434.6249999999996,143.2258064516129,434.6249999999996C155.16129032258064,434.6249999999996,155.16129032258064,406.1250000000002,167.09677419354838,406.1250000000002C202.9032258064516,406.1250000000002,202.9032258064516,406.1250000000002,238.70967741935482,406.1250000000002C250.6451612903226,406.1250000000002,250.6451612903226,334.8750000000002,262.58064516129036,334.8750000000002C274.51612903225805,334.8750000000002,274.51612903225805,313.5000000000004,286.4516129032258,313.5000000000004C298.38709677419354,313.5000000000004,298.38709677419354,377.6249999999998,310.3225806451613,377.6249999999998C322.258064516129,377.6249999999998,322.258064516129,562.8750000000005,334.19354838709677,562.8750000000005C370,562.8750000000005,370,498.75,405.8064516129032,498.75C417.741935483871,498.75,417.741935483871,427.5,429.6774193548387,427.5C441.61290322580646,427.5,441.61290322580646,285,453.5483870967742,285C465.48387096774195,285,465.48387096774195,285,477.41935483870964,285C489.3548387096774,285,489.3548387096774,320.625,501.2903225806451,320.625C537.0967741935483,320.625,537.0967741935483,384.7500000000004,572.9032258064516,384.7500000000004C584.8387096774193,384.7500000000004,584.8387096774193,341.9999999999998,596.7741935483871,341.9999999999998C608.7096774193549,341.9999999999998,608.7096774193549,285,620.6451612903226,285C632.5806451612902,285,632.5806451612902,235.1249999999998,644.516129032258,235.1249999999998C656.4516129032259,235.1249999999998,656.4516129032259,220.8749999999996,668.3870967741935,220.8749999999996C704.1935483870968,220.8749999999996,704.1935483870968,135.3750000000004,740,135.3750000000004" stroke="#1f77b4" fill="none"/><text font-family="sans-serif" font-size="10" class="labels" x="0" y="0" dx="0" dy="-4" text-anchor="middle"/></g></g></g><text y="4" x="4" style="font-family: Arial, sans-serif; font-size: 12px; fill: black; font-weight: bold; dominant-baseline: hanging;"/></g><g id="grid"><rect x="0" y="0" width="805" height="600" fill="none" stroke="#ccc"/></g></g></svg>